<svg width="26" height="27" viewBox="0 0 26 27" fill="none" xmlns="http://www.w3.org/2000/svg">
<path d="M24.9993 19.4686V23.0816C25.0006 23.417 24.9318 23.749 24.7971 24.0563C24.6625 24.3636 24.465 24.6395 24.2174 24.8662C23.9698 25.093 23.6774 25.2656 23.359 25.373C23.0407 25.4805 22.7033 25.5204 22.3686 25.4902C18.6554 25.0875 15.0885 23.8212 11.9547 21.793C9.03906 19.9439 6.56712 17.4769 4.7144 14.567C2.67503 11.4252 1.40589 7.84809 1.00979 4.12554C0.979639 3.79251 1.0193 3.45685 1.12624 3.13995C1.23319 2.82305 1.40508 2.53185 1.63097 2.28488C1.85686 2.03791 2.1318 1.84059 2.43829 1.70548C2.74478 1.57037 3.0761 1.50043 3.41115 1.50012H7.03129C7.61692 1.49436 8.18466 1.70133 8.62869 2.08245C9.07273 2.46356 9.36276 2.99281 9.44472 3.57155C9.59752 4.72778 9.88089 5.86305 10.2894 6.9557C10.4518 7.38675 10.4869 7.85522 10.3907 8.3056C10.2944 8.75597 10.0708 9.16938 9.7464 9.49682L8.21387 11.0263C9.9317 14.0414 12.4331 16.5378 15.4542 18.2522L16.9867 16.7228C17.3148 16.399 17.729 16.1758 18.1803 16.0798C18.6315 15.9837 19.1009 16.0188 19.5328 16.1808C20.6277 16.5885 21.7652 16.8713 22.9237 17.0238C23.5099 17.1064 24.0452 17.401 24.4279 17.8518C24.8106 18.3026 25.0139 18.878 24.9993 19.4686Z" stroke="#ee4b28" stroke-width="1.6" stroke-linecap="round" stroke-linejoin="round"/>
</svg>
